<svg xmlns="http://www.w3.org/2000/svg" xmlns:xlink="http://www.w3.org/1999/xlink" width="100" height="32" viewBox="0 0 100 32">
    <defs>
        <path id="a" d="M0 .565h31.837v31.464H0z"/>
    </defs>
    <g fill="none" fill-rule="evenodd">
        <g transform="translate(0 -.594)">
            <mask id="b" fill="#fff">
                <use xlink:href="#a"/>
            </mask>
            <path fill="#0091ea" d="M15.975.564C7.235.564 0 7.423 0 16.16s7.07 15.847 15.81 15.847l1.644.022a3.598 3.598 0 0 0 3.596-3.593 3.6 3.6 0 0 0-3.596-3.594l-1.645.023c-4.8 0-8.667-3.906-8.667-8.705 0-4.8 4.032-8.455 8.833-8.455s8.671 3.363 8.671 8.164v5.976h-.01v6.452h.01v.063h.001a3.598 3.598 0 0 0 3.594 3.571 3.6 3.6 0 0 0 3.595-3.57V16.106c0-8.737-7.12-15.543-15.86-15.543" mask="url(#b)"/>
        </g>
        <path fill="#0091ea" d="M69.525 25.16l-9.621-9.618 9.268-9.264a3.599 3.599 0 0 0 0-5.083 3.602 3.602 0 0 0-5.085 0l-9.267 9.264-9.17-9.167-5.084 5.083 23.876 23.867a3.599 3.599 0 0 0 5.084 0 3.598 3.598 0 0 0 0-5.082z"/>
        <path fill="#0091ea" d="M84.907 9.504l1.232-1.326c.66-.644 1.529-1 2.45-1a3.511 3.511 0 0 1 3.508 3.507c0 .922-.357 1.794-1.005 2.454-.013.012-.022.025-.034.036l-1.239 1.239a3.596 3.596 0 0 0 0 5.082 3.596 3.596 0 0 0 5.085 0l2.232-2.56a10.514 10.514 0 0 0 2.047-6.251c0-5.84-4.752-10.591-10.594-10.591a10.539 10.539 0 0 0-7.418 3.03c-.006.007-.008.013-.015.017l-.009.008-1.323 1.273a3.596 3.596 0 0 0 0 5.082 3.597 3.597 0 0 0 5.083 0M44.66 20.633l-.009-.009-4.564 4.563.008.008a3.596 3.596 0 0 0 .003 5.079 3.599 3.599 0 0 0 5.083 0l-.007-.008 4.55-4.549.008.008a3.595 3.595 0 0 0 0-5.082 3.596 3.596 0 0 0-5.071-.01"/>
        <path fill="#0091ea" d="M45.65 1.29a3.6 3.6 0 0 0-5.084 0 3.596 3.596 0 0 0 0 5.082L45.65 1.29zM95.588 24.123H81.592a3.598 3.598 0 0 0-3.595 3.593 3.6 3.6 0 0 0 3.595 3.595h13.996a3.6 3.6 0 0 0 3.595-3.595 3.598 3.598 0 0 0-3.595-3.593"/>
    </g>
</svg>
